<svg xmlns="http://www.w3.org/2000/svg" xmlns:xlink="http://www.w3.org/1999/xlink" width="100" height="100" viewBox="0 0 100 100"><g><g transform="translate(50 50) scale(0.69 0.69) rotate(0) translate(-50 -50)" style="fill:#231f20"><svg fill="#231f20" xmlns="http://www.w3.org/2000/svg" xmlns:xlink="http://www.w3.org/1999/xlink" version="1.1" x="0px" y="0px" viewBox="0 0 100 100" enable-background="new 0 0 100 100" xml:space="preserve"><g><g><path d="M50.01,41.27c14.2,0,22.92-3.37,22.92-5.79c0-2.41-8.72-5.77-22.92-5.77c-14.21,0-22.93,3.36-22.93,5.77    C27.08,37.9,35.8,41.27,50.01,41.27z"></path><path d="M50.01,43.27c-10.51,0-21.12-1.93-24.1-5.63l-6.39,10.2c1.04,0.58,1.96,1.21,2.85,1.82c4.03,2.78,8.6,5.93,27.64,5.93    c19.03,0,23.601-3.149,27.62-5.92c0.9-0.62,1.82-1.25,2.87-1.84l-6.39-10.19C71.12,41.34,60.51,43.27,50.01,43.27z M34.77,43.408    L28.807,51.1c-0.197,0.254-0.493,0.389-0.791,0.389c-0.214,0-0.429-0.069-0.612-0.211c-0.437-0.338-0.516-0.965-0.178-1.402    l5.963-7.692c0.339-0.436,0.967-0.516,1.403-0.178C35.029,42.343,35.108,42.971,34.77,43.408z M50.008,54.494    c-0.552,0-1-0.447-1-1l-0.004-8.398c0-0.552,0.447-1,1-1s1,0.447,1,0.999l0.004,8.399C51.008,54.046,50.561,54.494,50.008,54.494z     M72.613,51.279c-0.182,0.143-0.397,0.211-0.611,0.211c-0.299,0-0.594-0.133-0.791-0.389l-5.966-7.695    c-0.339-0.436-0.259-1.065,0.178-1.403c0.435-0.339,1.063-0.258,1.402,0.178l5.966,7.696C73.13,50.314,73.05,50.941,72.613,51.279    z"></path><path d="M22.69,52.29L46.3,82.83c0.96,1.05,2.31,1.65,3.71,1.65c1.45,0,2.82-0.631,3.76-1.73l0.391-0.5    c0.02-0.02,0.04-0.05,0.06-0.07l-0.01-0.01l23.12-29.88c-4.061,2.65-9.811,5.3-27.32,5.3C32.52,57.59,26.76,54.95,22.69,52.29z     M44.561,75.805c-0.172,0.115-0.367,0.172-0.559,0.172c-0.322,0-0.637-0.154-0.83-0.44l-7.227-10.697    c-0.309-0.457-0.189-1.079,0.269-1.389c0.458-0.308,1.079-0.188,1.388,0.271l7.228,10.695    C45.139,74.873,45.019,75.495,44.561,75.805z M55.186,74.42l7.229-10.699c0.309-0.457,0.932-0.58,1.388-0.269    c0.458,0.309,0.579,0.931,0.269,1.388l-7.229,10.699c-0.191,0.286-0.508,0.439-0.828,0.439c-0.193,0-0.389-0.056-0.56-0.17    C54.996,75.499,54.875,74.877,55.186,74.42z M51.004,64.813v11.395c0,0.553-0.447,1-1,1c-0.552,0-1-0.447-1-1V64.813    c0-0.553,0.448-1,1-1C50.557,63.813,51.004,64.26,51.004,64.813z"></path><path d="M84.385,46.497l-7.567-12.061c-1.373-6.429-15.166-8.726-26.808-8.726c-11.647,0-25.443,2.298-26.808,8.728l-7.566,12.06    c-0.483,0.769-0.58,1.702-0.305,2.534l1.032,1.618l26.171,33.825c0.236,0.363,0.505,0.708,0.8,1.026    c1.681,1.884,4.124,2.98,6.676,2.98c2.632,0,5.124-1.158,6.836-3.177l0.019-0.022l0.019-0.022l0.439-0.55l0.049-0.063l0.045-0.065    c0.019-0.027,0.038-0.058,0.057-0.088l26.1-33.748l0.954-1.334C84.979,48.48,84.936,47.375,84.385,46.497z M82.63,48.7l-0.31,0.4    l0.01,0.03l-0.061,0.03L55.82,83.36c-0.021,0.029-0.04,0.069-0.061,0.1l-0.439,0.55c-1.34,1.58-3.271,2.471-5.311,2.471    c-1.98,0-3.88-0.851-5.21-2.341c-0.25-0.27-0.46-0.55-0.63-0.819L17.74,49.16c-0.02-0.01-0.04-0.02-0.07-0.04l0.02-0.03l-0.3-0.39    c-0.26-0.33-0.28-0.79-0.06-1.14l7.78-12.4c0.52-4.89,12.78-7.45,24.9-7.45c12.12,0,24.37,2.55,24.9,7.45l7.78,12.4    C82.91,47.91,82.88,48.37,82.63,48.7z"></path></g><g><path d="M51,10.52v7.29c0,0.56-0.44,1-1,1c-0.55,0-1-0.44-1-1v-7.29c0-0.55,0.45-1,1-1C50.56,9.52,51,9.97,51,10.52z"></path><path d="M65.75,13.48l-2.49,6.85c-0.149,0.41-0.529,0.66-0.939,0.66c-0.11,0-0.23-0.02-0.34-0.06    c-0.521-0.19-0.79-0.76-0.601-1.28l2.49-6.86c0.189-0.52,0.77-0.78,1.28-0.6C65.67,12.38,65.94,12.96,65.75,13.48z"></path><path d="M78.6,21.3l-4.689,5.59c-0.2,0.23-0.48,0.35-0.76,0.35c-0.23,0-0.46-0.07-0.65-0.23c-0.42-0.35-0.47-0.99-0.12-1.41    l4.69-5.59c0.35-0.42,0.979-0.47,1.41-0.12C78.9,20.25,78.96,20.88,78.6,21.3z"></path><path d="M88,33.04l-6.32,3.65c-0.149,0.09-0.33,0.14-0.5,0.14c-0.34,0-0.68-0.18-0.859-0.5c-0.28-0.48-0.12-1.1,0.359-1.37    L87,31.31c0.48-0.27,1.09-0.11,1.37,0.37C88.64,32.16,88.48,32.77,88,33.04z"></path><path d="M38.03,20.92c-0.11,0.04-0.23,0.06-0.34,0.06c-0.41,0-0.79-0.25-0.94-0.65l-2.5-6.86c-0.19-0.52,0.08-1.09,0.6-1.28    s1.09,0.08,1.28,0.6l2.5,6.85C38.82,20.16,38.55,20.73,38.03,20.92z"></path><path d="M27.5,27c-0.19,0.15-0.42,0.23-0.64,0.23c-0.29,0-0.57-0.12-0.77-0.35l-4.69-5.59c-0.35-0.43-0.3-1.06,0.13-1.41    c0.42-0.36,1.05-0.3,1.41,0.12l4.68,5.59C27.98,26.01,27.92,26.64,27.5,27z"></path><path d="M19.68,36.31c-0.18,0.32-0.52,0.5-0.86,0.5c-0.17,0-0.34-0.04-0.5-0.13L12,33.03c-0.48-0.28-0.64-0.89-0.37-1.36    c0.28-0.48,0.89-0.65,1.37-0.37l6.32,3.64C19.79,35.22,19.96,35.83,19.68,36.31z"></path></g></g></svg></g></g></svg>