<svg xmlns="http://www.w3.org/2000/svg" xmlns:xlink="http://www.w3.org/1999/xlink" width="100" height="100" viewBox="0 0 100 100"><g><g transform="translate(50 50) scale(0.69 0.69) rotate(0) translate(-50 -50)" style="fill:#ffffff"><svg fill="#ffffff" xmlns="http://www.w3.org/2000/svg" xmlns:xlink="http://www.w3.org/1999/xlink" version="1.1" x="0px" y="0px" viewBox="0 0 1253.795 486.5" enable-background="new 0 0 1253.795 486.5" xml:space="preserve"><path d="M529.671,255.679c-51.531-7.072-105,0-141.102,42.106c-58.895-63.303-140.414-16.638-133.521-23.527  c107.154-107.145,193.997-166,243.997-172s32.628,65.67,138.628,63.67c0,0,52-54,25.282-87.133  c-55.346-53.004-156.719-76.608-343.592-3.962C172.607,131.883,19.556,275.026,19.556,323.795  c0,99.072,133.146,120.782,290.501,115.229c93.06-3.282,269.468-5.509,360.968-41.666  C664.671,299.928,591.155,264.117,529.671,255.679z"></path><path d="M1165.406,63.583c-18.627-18.831-47.356-35.271-88.06-34.878c-70.441,5.041-93.639,49.26-110.77,85.412  c-16.94-36.877-45.212-86.171-118.575-85.412c-60.067,3.844-95.967,40.473-108.987,86.318  c-15.869,55.898,4.531,117.519,29.653,152.586c25.938,36.188,63.657,66.256,96.777,95.055  c35.164,30.56,57.376,42.244,102.021,79.084c44.276-40.714,113.869-84.209,171.749-144.474  c26.248-28.458,49.169-58.05,56.661-107.253C1203.867,137.941,1194.732,93.211,1165.406,63.583z"></path></svg></g></g></svg>