<svg xmlns="http://www.w3.org/2000/svg" xmlns:xlink="http://www.w3.org/1999/xlink" width="100" height="100" viewBox="0 0 100 100"><g><g transform="translate(50 50) scale(0.69 0.69) rotate(0) translate(-50 -50)" style="fill:#231f20"><svg fill="#231f20" xmlns:xlink="http://www.w3.org/1999/xlink" xmlns="http://www.w3.org/2000/svg" stroke-width="0.501" stroke-linejoin="bevel" fill-rule="evenodd" version="1.1" overflow="visible" viewBox="0 0 75 75" x="0px" y="0px"><g fill="none" stroke="black" font-family="Times New Roman" font-size="16" transform="scale(1 -1)"><g transform="translate(0 -75)"><g><path d="M 36.773,16.928 C 27.16,23.881 20.123,29.67 16.314,35.059 L 25.723,35.059 L 29.724,33.549 C 30.298,33.332 30.938,33.641 31.125,34.227 L 34.305,44.207 L 36.968,27.462 C 37.14,26.38 38.647,26.227 39.032,27.253 L 43.053,37.958 L 45.67,35.369 C 45.871,35.17 46.142,35.059 46.425,35.059 L 58.683,35.059 C 54.865,29.656 47.811,23.861 38.226,16.928 C 37.792,16.614 37.207,16.614 36.773,16.928 Z M 38.45,31.807 L 35.715,49.007 C 35.539,50.118 33.975,50.236 33.633,49.164 L 29.424,35.956 L 26.297,37.135 C 26.176,37.181 26.048,37.205 25.919,37.205 L 14.959,37.205 C 13.715,39.45 13.069,41.643 13.069,43.84 C 13.069,51.827 19.55,58.308 27.537,58.308 C 31.338,58.308 34.799,56.835 37.381,54.436 L 37.499,54.315 L 37.617,54.436 C 40.198,56.835 43.66,58.308 47.462,58.308 C 55.449,58.308 61.931,51.827 61.931,43.84 C 61.931,41.643 61.282,39.45 60.039,37.205 L 46.866,37.205 L 43.385,40.648 C 42.833,41.194 41.899,40.99 41.626,40.263 L 38.45,31.807 Z" fill="#231f20" fill-rule="evenodd" stroke-width="0.551" stroke="none" marker-start="none" marker-end="none" stroke-miterlimit="79.8403193612775"></path></g></g></g></svg></g></g></svg>