<svg xmlns="http://www.w3.org/2000/svg" xmlns:xlink="http://www.w3.org/1999/xlink" width="100" height="100" viewBox="0 0 100 100"><g><g transform="translate(50 50) scale(0.69 0.69) rotate(0) translate(-50 -50)" style="fill:#231f20"><svg fill="#231f20" xmlns="http://www.w3.org/2000/svg" xmlns:xlink="http://www.w3.org/1999/xlink" version="1.1" x="0px" y="0px" viewBox="0 0 100 100" enable-background="new 0 0 100 100" xml:space="preserve"><g><path fill="#231f20" d="M42.427,41.053c-7.816,3.42-14.281,4.372-19.338,4.205c-0.032-0.003-0.065-0.002-0.098-0.004   c-8.396-0.302-12.881-3.688-13.182-3.922c-0.91-0.72-2.229-0.571-2.954,0.335c-0.727,0.909-0.58,2.235,0.329,2.962   c0.323,0.258,5.078,3.926,13.799,4.701c0.646,6.895-0.509,12.08-3.487,15.38c-3.605,3.996-8.832,3.912-8.925,3.914   c-1.169-0.039-2.133,0.866-2.177,2.026c-0.044,1.163,0.863,2.142,2.026,2.186c0.025,0.001,0.098,0.004,0.214,0.004   c1.242,0,7.396-0.263,11.939-5.249c1.65-1.811,2.87-4.008,3.673-6.564c2.655-0.008,8.426,1.058,10.288,10.129   c0.205,0.997,1.083,1.684,2.062,1.684c0.14,0,0.283-0.014,0.425-0.043c1.14-0.234,1.875-1.348,1.641-2.488   c-1.55-7.557-5.449-10.917-9.059-12.379v-8.825c4.271-0.564,9.108-1.826,14.512-4.19c1.066-0.466,1.552-1.709,1.086-2.775   S43.493,40.588,42.427,41.053z"></path><path fill="#231f20" d="M25.546,42.984c2.543,0,4.607-2.062,4.607-4.606c0-2.542-2.064-4.604-4.607-4.604   c-2.541,0-4.605,2.062-4.605,4.604C20.941,40.922,23.005,42.984,25.546,42.984z"></path><circle fill="#231f20" cx="59.667" cy="50.133" r="4.261"></circle><path fill="#231f20" d="M98.108,68.92L83.532,51.711c-0.189-0.223-0.423-0.404-0.686-0.532c-9.022-4.394-12.864-5.771-14.687-6.112   c-7.042-7.373-16.799-7.11-17.221-7.096c-1.161,0.042-2.066,1.016-2.027,2.176s1.019,2.078,2.173,2.036   c0.092-0.01,8.147-0.178,13.86,5.62L61.842,69.99c-0.161,1.152,0.643,2.218,1.795,2.379c0.099,0.014,0.197,0.021,0.295,0.021   c1.034,0,1.937-0.762,2.084-1.815l2.309-16.499l7.271,3.003c-3.119,6.206,0.583,13.8,0.757,14.146   c0.369,0.738,1.113,1.165,1.887,1.165c0.316,0,0.638-0.071,0.94-0.223c1.041-0.521,1.463-1.786,0.942-2.827   c-0.033-0.067-3.142-6.591-0.462-10.896l2.013-2.409l13.22,15.609c0.417,0.492,1.012,0.745,1.609,0.745   c0.481,0,0.965-0.164,1.361-0.499C98.75,71.138,98.86,69.809,98.108,68.92z"></path></g></svg></g></g></svg>