<?xml version="1.0" encoding="UTF-8"?>
<svg width="489px" height="1013px" viewBox="0 0 489 1013" version="1.1" xmlns="http://www.w3.org/2000/svg" xmlns:xlink="http://www.w3.org/1999/xlink">
    <!-- Generator: Sketch 51.3 (57544) - http://www.bohemiancoding.com/sketch -->
    <title>Group</title>
    <desc>Created with Sketch.</desc>
    <defs>
        <polygon id="path-1" points="0 0 0 1100 643.683368 1100 1055 550 643.683368 0"></polygon>
    </defs>
    <g id="Page-1" stroke="none" stroke-width="1" fill="none" fill-rule="evenodd">
        <g id="CROSSFIT_site_mock_up" transform="translate(-951.000000, -6.000000)">
            <g id="Group" transform="translate(1478.500000, 474.000000) scale(-1, 1) translate(-1478.500000, -474.000000) translate(951.000000, -76.000000)">
                <mask id="mask-2" fill="white">
                    <use xlink:href="#path-1"></use>
                </mask>
                <g id="Mask"></g>
                <g mask="url(#mask-2)" id="Path-2" opacity="0.402064732" stroke="#FFFFFF">
                    <g transform="translate(-63.000000, 0.000000)">
                        <path d="M0,83.0115309 L1388.92581,83.0115309"></path>
                        <path d="M0,96.9811089 L1388.92581,96.9811089"></path>
                        <path d="M0,110.682041 L1388.92581,110.682041"></path>
                        <path d="M0,123.845682 L1388.92581,123.845682"></path>
                        <path d="M0,136.740677 L1388.92581,136.740677"></path>
                        <path d="M0,150.710255 L1388.92581,150.710255"></path>
                        <path d="M0,165.48577 L1388.92581,165.48577"></path>
                        <path d="M0,178.649411 L1388.92581,178.649411"></path>
                        <path d="M0,191.544406 L1388.92581,191.544406"></path>
                        <path d="M0,205.513984 L1388.92581,205.513984"></path>
                        <path d="M0,220.2895 L1388.92581,220.2895"></path>
                        <path d="M0,234.527723 L1388.92581,234.527723"></path>
                        <path d="M0,247.422718 L1388.92581,247.422718"></path>
                        <path d="M0,261.392296 L1388.92581,261.392296"></path>
                        <path d="M0,275.093229 L1388.92581,275.093229"></path>
                        <path d="M0,288.256869 L1388.92581,288.256869"></path>
                        <path d="M0,301.151865 L1388.92581,301.151865"></path>
                        <path d="M0,315.121443 L1388.92581,315.121443"></path>
                        <path d="M0,328.822375 L1388.92581,328.822375"></path>
                        <path d="M0,341.986016 L1388.92581,341.986016"></path>
                        <path d="M0,355.955594 L1388.92581,355.955594"></path>
                        <path d="M0,369.925172 L1388.92581,369.925172"></path>
                        <path d="M0,384.700687 L1388.92581,384.700687"></path>
                        <path d="M0,397.864328 L1388.92581,397.864328"></path>
                        <path d="M0,410.759323 L1388.92581,410.759323"></path>
                        <path d="M0,424.728901 L1388.92581,424.728901"></path>
                        <path d="M0,438.429833 L1388.92581,438.429833"></path>
                        <path d="M0,451.593474 L1388.92581,451.593474"></path>
                        <path d="M0,464.488469 L1388.92581,464.488469"></path>
                        <path d="M0,478.458047 L1388.92581,478.458047"></path>
                        <path d="M0,492.158979 L1388.92581,492.158979"></path>
                        <path d="M0,506.397203 L1388.92581,506.397203"></path>
                        <path d="M0,518.217615 L1388.92581,518.217615"></path>
                        <path d="M0,533.261776 L1388.92581,533.261776"></path>
                        <path d="M0,548.037291 L1388.92581,548.037291"></path>
                        <path d="M0,561.200932 L1388.92581,561.200932"></path>
                        <path d="M0,574.095927 L1388.92581,574.095927"></path>
                        <path d="M0,588.065505 L1388.92581,588.065505"></path>
                        <path d="M0,601.766438 L1388.92581,601.766438"></path>
                        <path d="M0,614.930079 L1388.92581,614.930079"></path>
                        <path d="M0,627.825074 L1388.92581,627.825074"></path>
                        <path d="M0,641.794652 L1388.92581,641.794652"></path>
                        <path d="M1.07418856,655.495584 L1390,655.495584"></path>
                        <path d="M1.07418856,668.659225 L1390,668.659225"></path>
                        <path d="M1.07418856,682.628803 L1390,682.628803"></path>
                        <path d="M1.07418856,696.598381 L1390,696.598381"></path>
                        <path d="M1.07418856,711.373896 L1390,711.373896"></path>
                        <path d="M1.07418856,724.537537 L1390,724.537537"></path>
                        <path d="M1.07418856,737.432532 L1390,737.432532"></path>
                        <path d="M1.07418856,751.40211 L1390,751.40211"></path>
                        <path d="M1.07418856,765.103042 L1390,765.103042"></path>
                        <path d="M1.07418856,778.266683 L1390,778.266683"></path>
                        <path d="M1.07418856,791.161678 L1390,791.161678"></path>
                        <path d="M1.07418856,805.131256 L1390,805.131256"></path>
                        <path d="M1.07418856,819.906771 L1390,819.906771"></path>
                        <path d="M1.07418856,834.144995 L1390,834.144995"></path>
                        <path d="M1.07418856,847.03999 L1390,847.03999"></path>
                        <path d="M1.07418856,861.009568 L1390,861.009568"></path>
                        <path d="M1.07418856,875.785083 L1390,875.785083"></path>
                        <path d="M1.07418856,888.948724 L1390,888.948724"></path>
                        <path d="M1.07418856,901.843719 L1390,901.843719"></path>
                        <path d="M1.07418856,915.813297 L1390,915.813297"></path>
                        <path d="M1.07418856,929.51423 L1390,929.51423"></path>
                        <path d="M1.07418856,942.67787 L1390,942.67787"></path>
                        <path d="M1.07418856,955.572866 L1390,955.572866"></path>
                        <path d="M1.07418856,969.542444 L1390,969.542444"></path>
                        <path d="M1.07418856,983.243376 L1390,983.243376"></path>
                        <path d="M1.07418856,996.407017 L1390,996.407017"></path>
                        <path d="M1.07418856,1010.37659 L1390,1010.37659"></path>
                        <path d="M1.07418856,1024.34617 L1390,1024.34617"></path>
                        <path d="M1.07418856,1039.12169 L1390,1039.12169"></path>
                        <path d="M1.07418856,1053.35991 L1390,1053.35991"></path>
                        <path d="M1.07418856,1066.25491 L1390,1066.25491"></path>
                        <path d="M1.07418856,1080.22448 L1390,1080.22448"></path>
                        <path d="M1.07418856,1093.92542 L1390,1093.92542"></path>
                    </g>
                </g>
            </g>
        </g>
    </g>
</svg>