<svg xmlns="http://www.w3.org/2000/svg" xmlns:xlink="http://www.w3.org/1999/xlink" width="100" height="100" viewBox="0 0 100 100"><g><g transform="translate(50 50) scale(0.69 0.69) rotate(0) translate(-50 -50)" style="fill:#ffffff"><svg fill="#ffffff" xmlns="http://www.w3.org/2000/svg" xmlns:xlink="http://www.w3.org/1999/xlink" version="1.1" x="0px" y="0px" viewBox="0 0 512 512" enable-background="new 0 0 512 512" xml:space="preserve"><g><g><g><path d="M256.172,496c-1.83,0-3.56-0.835-4.698-2.268c-0.418-0.526-42.292-53.367-83.56-116.577     C112.065,291.607,83.832,228.631,84,189.974c0.172-39.659,18.46-80.909,50.174-113.174C167.641,42.751,210.551,24,254.999,24     c96.613,0,169.963,87.598,170.999,165.92c0.505,38.109-27.227,100.924-82.425,186.702     c-40.782,63.374-82.261,116.544-82.675,117.074c-1.133,1.447-2.865,2.297-4.704,2.304C256.187,496,256.179,496,256.172,496z      M254.999,36c-41.204,0-81.074,17.477-112.267,49.211C113.192,115.265,96.159,153.468,96,190.026     c-0.343,78.774,133.083,255.22,160.135,290.175c26.791-35.16,158.892-212.558,157.864-290.122     C413.037,117.347,344.834,36,254.999,36z"></path></g><g><path d="M255,276c-50.178,0-91-40.822-91-91s40.822-91,91-91s91,40.822,91,91S305.178,276,255,276z M255,106     c-43.561,0-79,35.439-79,79s35.439,79,79,79s79-35.439,79-79S298.561,106,255,106z"></path></g></g></g></svg></g></g></svg>