<svg xmlns="http://www.w3.org/2000/svg" xmlns:xlink="http://www.w3.org/1999/xlink" width="100" height="100" viewBox="0 0 100 100"><g><g transform="translate(50 50) scale(0.69 0.69) rotate(0) translate(-50 -50)" style="fill:#ffffff"><svg fill="#ffffff" xmlns:dc="http://purl.org/dc/elements/1.1/" xmlns:cc="http://creativecommons.org/ns#" xmlns:rdf="http://www.w3.org/1999/02/22-rdf-syntax-ns#" xmlns:svg="http://www.w3.org/2000/svg" xmlns="http://www.w3.org/2000/svg" xmlns:sodipodi="http://sodipodi.sourceforge.net/DTD/sodipodi-0.dtd" xmlns:inkscape="http://www.inkscape.org/namespaces/inkscape" version="1.1" x="0px" y="0px" viewBox="0 0 100 100"><g transform="translate(0,-952.36218)"><path style="text-indent:0;text-transform:none;direction:ltr;block-progression:tb;baseline-shift:baseline;color:#000000;enable-background:accumulate;" d="m 28,959.36218 c -1.64471,0 -3,1.3553 -3,3 l 0,80.00002 c 0,1.6447 1.35529,3 3,3 l 44,0 c 1.64471,0 3,-1.3553 3,-3 l 0,-80.00002 c 0,-1.6447 -1.35529,-3 -3,-3 l -44,0 z m 0,2 44,0 c 0.57131,0 1,0.4287 1,1 l 0,7 -46,0 0,-7 c 0,-0.5713 0.42869,-1 1,-1 z m -1,10 46,0 0,58.00002 -46,0 0,-58.00002 z m 0,60.00002 46,0 0,11 c 0,0.5713 -0.42869,1 -1,1 l -44,0 c -0.57131,0 -1,-0.4287 -1,-1 l 0,-11 z m 23,4 c -1.1046,0 -2,0.8954 -2,2 0,1.1045 0.8954,2 2,2 1.1046,0 2,-0.8955 2,-2 0,-1.1046 -0.8954,-2 -2,-2 z" fill="#ffffff" fill-opacity="1" stroke="none" marker="none" visibility="visible" display="inline" overflow="visible"></path></g></svg></g></g></svg>