<svg xmlns="http://www.w3.org/2000/svg" xmlns:xlink="http://www.w3.org/1999/xlink" width="100" height="100" viewBox="0 0 100 100"><g><g transform="translate(50 50) scale(0.69 0.69) rotate(0) translate(-50 -50)" style="fill:#ffffff"><svg fill="#ffffff" xmlns:dc="http://purl.org/dc/elements/1.1/" xmlns:cc="http://creativecommons.org/ns#" xmlns:rdf="http://www.w3.org/1999/02/22-rdf-syntax-ns#" xmlns:svg="http://www.w3.org/2000/svg" xmlns="http://www.w3.org/2000/svg" xmlns:sodipodi="http://sodipodi.sourceforge.net/DTD/sodipodi-0.dtd" xmlns:inkscape="http://www.inkscape.org/namespaces/inkscape" version="1.1" x="0px" y="0px" viewBox="0 0 100 100"><g transform="translate(0,-952.36218)"><path style="text-indent:0;text-transform:none;direction:ltr;block-progression:tb;baseline-shift:baseline;color:#000000;enable-background:accumulate;" d="m 50,971.36218 c -17.109,0 -31,13.8911 -31,31.00002 0,17.1087 13.891,31 31,31 17.109,0 31,-13.8913 31,-31 0,-17.10892 -13.891,-31.00002 -31,-31.00002 z m 0,2 c 16.0281,0 29,12.972 29,29.00002 0,16.0278 -12.9719,29 -29,29 -16.0281,0 -29,-12.9722 -29,-29 0,-16.02802 12.9719,-29.00002 29,-29.00002 z m 0,8 c -0.5523,0 -1,0.4477 -1,1 l 0,20.00002 c 0,0.2761 0.1004,0.5378 0.2813,0.7187 l 12.75,12.7188 c 0.3904,0.3905 1.0157,0.3905 1.4062,0 0.3904,-0.3906 0.3905,-1.0157 0,-1.4063 L 51,1001.9247 51,982.36218 c 0,-0.5523 -0.4477,-1 -1,-1 z" fill="#ffffff" fill-opacity="1" stroke="none" marker="none" visibility="visible" display="inline" overflow="visible"></path></g></svg></g></g></svg>