<svg xmlns="http://www.w3.org/2000/svg" xmlns:xlink="http://www.w3.org/1999/xlink" width="100" height="100" viewBox="0 0 100 100"><g><g transform="translate(50 50) scale(0.69 0.69) rotate(0) translate(-50 -50)" style="fill:#ffffff"><svg fill="#ffffff" xmlns="http://www.w3.org/2000/svg" viewBox="0 0 50.04 47.36" x="0px" y="0px"><title>muscle</title><path d="M206.49,594.63A10.52,10.52,0,1,0,217,605.16,10.52,10.52,0,0,0,206.49,594.63Zm0,14.57a4,4,0,1,1,4-4A4,4,0,0,1,206.49,609.2Zm2.43-4a2.43,2.43,0,1,1-2.43-2.43A2.43,2.43,0,0,1,208.92,605.16Zm-26.32-4.24a21.85,21.85,0,0,0,1.61-8,6.69,6.69,0,0,0,2.61-5.54,6.56,6.56,0,0,0-3.28-5.93,11,11,0,0,0,.61-3.61c0-5.24-3.54-9.49-7.9-9.49s-7.9,4.25-7.9,9.49A10.89,10.89,0,0,0,169,582,9.25,9.25,0,0,0,168,592v0a22.65,22.65,0,0,0,1.61,8.18c0.22,3.91,1.14,9.13,2.87,9.41,2.8,0.46,26.52,0,26.52,0v-5.46S184.26,603.79,182.6,600.92Z" transform="translate(-166.98 -568.32)"></path></svg></g></g></svg>