<svg xmlns="http://www.w3.org/2000/svg" xmlns:xlink="http://www.w3.org/1999/xlink" width="100" height="100" viewBox="0 0 100 100"><g><g transform="translate(50 50) scale(0.69 0.69) rotate(0) translate(-50 -50)" style="fill:#ffffff"><svg fill="#ffffff" xmlns="http://www.w3.org/2000/svg" xmlns:xlink="http://www.w3.org/1999/xlink" version="1.1" x="0px" y="0px" viewBox="0 0 85.75 236.99" style="enable-background:new 0 0 85.75 236.99;" xml:space="preserve"><g><path d="M69.867,98.335h-0.076c-2.975-0.036-5.108-0.834-6.877-1.581c-1.744-0.77-3.211-1.602-4.504-2.336l-0.523-0.299   c-2.436-1.389-4.951-2.828-7.707-3.91c-1.179-0.464-2.214-1.134-3.101-1.939c-0.443-0.021-0.888-0.052-1.329-0.052   c-7.561,0.036-12.541,2.861-17.813,5.854c-0.879,0.498-1.754,0.993-2.635,1.474l-0.76,0.382c-2.016,1.019-4.529,2.285-8.543,2.403   h-0.033h-0.113c-0.009,0-0.017-0.002-0.024-0.002v20.701l-8.53,104.591c-0.555,6.807,4.514,12.773,11.318,13.327   c6.805,0.555,12.773-4.51,13.328-11.317l7.429-91.083h7.002l7.429,91.083c0.555,6.808,6.523,11.872,13.328,11.317   c6.805-0.555,11.873-6.52,11.318-13.327l-8.53-104.591V98.333c-0.014,0-0.027,0.002-0.04,0.002H69.867z"></path><circle cx="42.875" cy="22.5" r="22.5"></circle><path d="M2.494,86.248c1.699,3.462,4.471,6.723,8.41,8.708c1.611,0.821,3.412,1.177,4.949,1.177c0.027,0,0.055,0,0.082,0   c3.949-0.116,6.172-1.465,8.314-2.518c6.193-3.372,12.021-7.554,21.502-7.597c1.5,0,3.094,0.111,4.813,0.369   c4.369,0.657,8.443-2.354,9.1-6.722c0.656-4.371-2.354-8.442-6.723-9.099c-2.498-0.376-4.896-0.548-7.189-0.548   C36.016,70,28.358,73.169,23.016,75.995c-2.541,1.34-4.619,2.6-6.066,3.38c-0.037-0.067-0.074-0.137-0.111-0.211   c-0.243-0.481-0.454-1.095-0.604-1.785l2.019-1.264c1.07-0.612,2.344-1.335,3.738-2.068c7.924-4.193,15.672-6.23,23.68-6.23   c2.547,0,5.078,0.192,7.6,0.571c2.626,0.395,4.86,1.772,6.41,3.693c2.562,1.131,4.81,2.334,6.865,3.492   c0.33,0.188,0.646,0.37,0.953,0.545l2.018,1.262c-0.151,0.689-0.364,1.302-0.607,1.783c-0.037,0.072-0.072,0.142-0.109,0.208   c-0.879-0.478-2.027-1.133-3.334-1.881c-1.185-0.668-2.528-1.406-4.017-2.151c0.474,1.456,0.637,3.036,0.394,4.65   c-0.728,4.825-4.861,8.485-9.7,8.669c2.621,1.14,5.006,2.504,7.353,3.845c1.355,0.767,2.703,1.529,4.277,2.223   c1.574,0.666,3.434,1.378,6.045,1.408c0.021,0,0.043,0,0.064,0c1.547,0,3.352-0.358,4.963-1.177   c3.945-1.993,6.711-5.251,8.412-8.71c0.034-0.069,0.062-0.141,0.095-0.21c1.641-3.431,2.392-7.132,2.399-10.874   c-0.016-5.621-1.703-11.512-5.77-16.366c-3.771-4.577-9.897-7.741-16.903-8.046c-0.291-0.033-0.586-0.054-0.885-0.054H23.558   c-0.299,0-0.592,0.021-0.881,0.054c-7.006,0.307-13.135,3.47-16.903,8.045C1.705,63.651,0.016,69.545,0,75.164   c0.008,3.741,0.759,7.446,2.4,10.876C2.433,86.109,2.46,86.18,2.494,86.248z"></path></g></svg></g></g></svg>